<svg width="390" height="429" viewBox="0 0 390 429" fill="none" xmlns="http://www.w3.org/2000/svg">
<path d="M183.584 177.609C234.253 177.609 280.11 181.923 313.285 188.892C329.877 192.377 343.269 196.521 352.499 201.105C357.115 203.397 360.662 205.787 363.049 208.237C365.433 210.684 366.624 213.155 366.624 215.629C366.624 218.104 365.433 220.574 363.049 223.022C360.662 225.472 357.115 227.861 352.499 230.154C343.269 234.738 329.877 238.881 313.285 242.367C280.11 249.335 234.253 253.65 183.584 253.65C132.915 253.65 87.0574 249.336 53.8818 242.367C37.29 238.881 23.899 234.738 14.6689 230.154C10.0529 227.861 6.50551 225.472 4.11914 223.022C1.7347 220.574 0.542976 218.104 0.542969 215.629C0.542969 213.155 1.7347 210.685 4.11914 208.237C6.50551 205.787 10.0529 203.397 14.6689 201.105C23.899 196.521 37.2899 192.377 53.8818 188.892C87.0574 181.923 132.915 177.609 183.584 177.609Z" stroke="black" stroke-width="1.08629"/>
<path d="M183.584 204.766C234.253 204.766 280.11 209.081 313.285 216.05C329.877 219.535 343.269 223.678 352.499 228.262C357.115 230.555 360.662 232.945 363.049 235.394C365.433 237.842 366.624 240.312 366.624 242.787C366.624 245.261 365.433 247.732 363.049 250.179C360.662 252.629 357.115 255.019 352.499 257.311C343.269 261.895 329.877 266.039 313.285 269.524C280.11 276.493 234.253 280.807 183.584 280.807C132.915 280.807 87.0574 276.493 53.8818 269.524C37.29 266.039 23.899 261.895 14.6689 257.311C10.0529 255.019 6.50551 252.629 4.11914 250.179C1.7347 247.732 0.542976 245.261 0.542969 242.787C0.542969 240.312 1.7347 237.842 4.11914 235.394C6.50551 232.945 10.0529 230.555 14.6689 228.262C23.899 223.679 37.2899 219.535 53.8818 216.05C87.0574 209.081 132.915 204.766 183.584 204.766Z" stroke="black" stroke-width="1.08629"/>
<path d="M183.584 231.924C234.253 231.924 280.11 236.238 313.285 243.207C329.877 246.692 343.269 250.836 352.499 255.42C357.115 257.712 360.662 260.102 363.049 262.552C365.433 264.999 366.624 267.47 366.624 269.944C366.624 272.418 365.433 274.889 363.049 277.337C360.662 279.786 357.115 282.176 352.499 284.469C343.269 289.052 329.877 293.196 313.285 296.681C280.11 303.65 234.253 307.965 183.584 307.965C132.915 307.965 87.0574 303.65 53.8818 296.681C37.29 293.196 23.899 289.052 14.6689 284.469C10.0529 282.176 6.50551 279.786 4.11914 277.337C1.7347 274.889 0.542976 272.419 0.542969 269.944C0.542969 267.47 1.7347 264.999 4.11914 262.552C6.50551 260.102 10.0529 257.712 14.6689 255.42C23.899 250.836 37.2899 246.692 53.8818 243.207C87.0574 236.238 132.915 231.924 183.584 231.924Z" stroke="black" stroke-width="1.08629"/>
<path d="M274.119 72.3789L274.302 73.3623L275.027 72.6738L326.226 24.0889L295.843 87.7979L295.412 88.7002L296.404 88.5703L366.382 79.3594L304.354 113.04L303.475 113.518L304.354 113.995L366.382 147.676L296.404 138.466L295.412 138.335L295.843 139.238L326.226 202.946L275.027 154.361L274.302 153.673L274.119 154.656L261.254 224.055L248.389 154.656L248.207 153.673L247.481 154.361L196.281 202.944L226.665 139.238L227.095 138.335L226.104 138.466L156.126 147.676L218.153 113.995L219.032 113.518L218.153 113.04L156.126 79.3594L226.104 88.5703L227.095 88.7002L226.665 87.7979L196.281 24.0908L247.481 72.6738L248.207 73.3623L248.389 72.3789L261.254 2.97949L274.119 72.3789Z" stroke="black" stroke-width="1.08629"/>
<path d="M300.904 192.274L320.228 241.223L370.546 225.812L344.325 271.44L387.746 301.172L335.725 309.119L339.552 361.605L300.904 325.888L262.255 361.605L266.082 309.119L214.061 301.172L257.482 271.44L231.261 225.812L281.579 241.223L300.904 192.274Z" fill="#D9D9D9"/>
<path d="M121.876 332.517L146.796 286.782L171.915 332.517L217.551 357.537L171.915 382.556L146.796 428.292L121.876 382.556L76.0405 357.537L121.876 332.517Z" fill="#713DFF"/>
<circle cx="165.66" cy="202.594" r="67.3503" fill="black" stroke="black" stroke-width="1.08629"/>
<ellipse cx="143.391" cy="187.929" rx="10.8629" ry="21.7259" fill="white"/>
<ellipse cx="187.929" cy="187.929" rx="10.8629" ry="21.7259" fill="white"/>
</svg>
